<?xml version="1.0" standalone="no"?>
<!DOCTYPE svg PUBLIC "-//W3C//DTD SVG 20010904//EN"
 "http://www.w3.org/TR/2001/REC-SVG-20010904/DTD/svg10.dtd">
<svg version="1.0" xmlns="http://www.w3.org/2000/svg"
 width="90.000000pt" height="90.000000pt" viewBox="0 0 90.000000 90.000000"
 preserveAspectRatio="xMidYMid meet">

<g transform="translate(0.000000,90.000000) scale(0.100000,-0.100000)"
fill="#ffb703" stroke="none">
<path d="M355 797 c-109 -37 -186 -103 -232 -202 -38 -81 -40 -203 -5 -281
l23 -51 -20 -74 c-12 -40 -21 -79 -21 -86 0 -8 26 -5 86 12 l87 23 46 -22 c72
-33 197 -30 276 7 78 36 146 104 182 181 24 52 28 74 28 146 0 72 -4 94 -28
146 -57 123 -177 204 -311 211 -41 1 -88 -3 -111 -10z m9 -199 c24 -39 29 -69
15 -95 -18 -34 2 -68 65 -111 l49 -33 27 26 28 27 41 -21 c47 -25 54 -56 20
-87 -70 -63 -258 37 -320 171 -24 51 -24 72 1 113 23 38 53 42 74 10z"/>
</g>
</svg>
