<?xml version="1.0" standalone="no"?>
<!DOCTYPE svg PUBLIC "-//W3C//DTD SVG 20010904//EN"
 "http://www.w3.org/TR/2001/REC-SVG-20010904/DTD/svg10.dtd">
<svg version="1.0" xmlns="http://www.w3.org/2000/svg"
 width="96.000000pt" height="96.000000pt" viewBox="0 0 96.000000 96.000000"
 preserveAspectRatio="xMidYMid meet">

<g transform="translate(0.000000,96.000000) scale(0.100000,-0.100000)"
fill="#ffb703" stroke="none">
<path d="M385 827 c-109 -37 -186 -103 -232 -202 -40 -86 -40 -204 0 -290 34
-72 95 -138 159 -171 67 -34 78 -32 78 14 0 37 0 37 -41 38 -43 0 -43 0 -106
83 -27 35 -28 41 -7 41 9 0 31 -16 48 -35 44 -48 95 -52 114 -10 11 23 9 25
-28 35 -100 27 -151 142 -103 233 9 18 16 48 15 67 -1 19 2 42 7 50 9 13 14
13 43 0 45 -19 251 -19 296 0 29 13 34 13 43 0 5 -8 9 -31 8 -50 -1 -19 6 -52
15 -72 43 -99 -4 -201 -105 -228 -34 -9 -38 -13 -29 -30 5 -10 10 -50 10 -89
0 -82 4 -85 78 -47 64 33 125 99 159 171 24 51 28 73 28 145 0 72 -4 94 -28
146 -57 123 -177 204 -311 211 -41 1 -88 -3 -111 -10z"/>
</g>
</svg>
